<svg xmlns="http://www.w3.org/2000/svg" viewBox="0 0 150.6 144.91"><defs><style>.cls-1{fill:#fff;}</style></defs><g id="Camada_2" data-name="Camada 2"><g id="Camada_1-2" data-name="Camada 1"><path class="cls-1" d="M99.36.18c-8.54,2-15.21,9.08-18.43,19.55a41.13,41.13,0,0,0-1.67,15.35c1,8.72,5.08,15.56,11.19,18.63a12.58,12.58,0,0,0,10.11.9,26.29,26.29,0,0,0,7.29-4.29c5.29-4.48,9.05-11.39,10.46-19.18a31.45,31.45,0,0,0,.59-7c0-5.7-.8-9.85-2.57-13.53-2.71-5.61-7-9.28-12.09-10.37A14.34,14.34,0,0,0,99.36.18Z"/><path class="cls-1" d="M45,.72c-4.72.82-9.17,4.54-11.81,9.87a24.67,24.67,0,0,0-2.44,10,43.67,43.67,0,0,0,.14,6.76C32.05,38,37,47,44.56,52a27.7,27.7,0,0,0,5.7,2.81,7.82,7.82,0,0,0,2.84.51,12,12,0,0,0,4.56-.59A14.75,14.75,0,0,0,63.84,51c3.64-3.64,5.9-9.12,6.42-15.57a41,41,0,0,0-.6-9.71c-2.3-12.55-9.52-21.85-19.07-24.6A12.69,12.69,0,0,0,45,.72Z"/><path class="cls-1" d="M134.19,43.66c-7.87,1.3-14.72,6.72-19,15.07a35.3,35.3,0,0,0-3.72,11.85,22.53,22.53,0,0,0-.32,4.4,19.11,19.11,0,0,0,.65,5.63c1.35,5.31,4.54,9.63,8.5,11.55a11.57,11.57,0,0,0,6.37,1.23c5.4-.47,10.22-2.9,14.5-7.33a34.65,34.65,0,0,0,9-18.73,45.05,45.05,0,0,0,.37-6.67c-.43-7.32-4.36-13.76-9.84-16.11A12,12,0,0,0,134.19,43.66Z"/><path class="cls-1" d="M12.37,46.75a14,14,0,0,0-11,9.16A29.85,29.85,0,0,0,.12,62.15,33.87,33.87,0,0,0,7.39,85.51,28,28,0,0,0,22,95.29a12.36,12.36,0,0,0,12.61-3.54c3.23-3.23,4.84-7.93,4.84-14.14a27.55,27.55,0,0,0-.54-6A34.06,34.06,0,0,0,27.12,51.82,27.16,27.16,0,0,0,18.36,47,15.72,15.72,0,0,0,12.37,46.75Z"/><path class="cls-1" d="M73.43,75.45A41.39,41.39,0,0,0,61.3,78.76a42.47,42.47,0,0,0-15.78,12c-8.21,10.52-13.9,21.91-16.22,32.42-.14.64-.39,1.62-.54,2.17a15.12,15.12,0,0,0,.36,8.95,15.68,15.68,0,0,0,9.63,9.59c2.64.88,6.58.87,11-.05,2.86-.59,5-1.27,11.07-3.52,8.45-3.14,10.79-3.74,16.48-4.27A21.85,21.85,0,0,1,82,136c4.48.32,8,1.3,14.83,4.08,6,2.45,9.39,3.78,10.24,4,8.47,2.4,16.88-.55,19.77-6.94,1.26-2.82,1.4-7.39.34-11.74a63.27,63.27,0,0,0-7-15.71c-8.3-13.06-14.22-20.32-21.06-25.85-6.44-5.19-11.84-7.65-18.49-8.39A40.88,40.88,0,0,0,73.43,75.45Z"/></g></g></svg>